<svg width="146" height="146" viewBox="0 0 146 146" fill="none" xmlns="http://www.w3.org/2000/svg">
<path d="M133.11 9.45508H12.8877C5.78114 9.45508 0 15.236 0 22.3428V105.668C0 112.775 5.78114 118.556 12.8877 118.556H54.2087C55.4697 118.556 56.4899 117.536 56.4899 116.275C56.4899 115.014 55.4697 113.994 54.2087 113.994H12.8877C8.29645 113.994 4.5625 110.26 4.5625 105.668V22.3428C4.5625 17.7513 8.29645 14.0176 12.8877 14.0176H133.11C137.701 14.0176 141.438 17.7513 141.438 22.3428V105.668C141.438 110.26 137.701 113.994 133.11 113.994C131.849 113.994 130.829 115.014 130.829 116.275C130.829 117.536 131.849 118.556 133.11 118.556C140.217 118.556 146 112.775 146 105.668V22.3428C146 15.236 140.217 9.45508 133.11 9.45508Z" fill="white"/>
<path d="M50.1875 73.3301H22.8125C21.5517 73.3301 20.5312 74.3503 20.5312 75.6113C20.5312 76.8722 21.5517 77.8926 22.8125 77.8926H50.1875C51.4486 77.8926 52.4688 76.8722 52.4688 75.6113C52.4688 74.3503 51.4486 73.3301 50.1875 73.3301Z" fill="white"/>
<path d="M50.1875 88.2715H22.8125C21.5517 88.2715 20.5312 89.2917 20.5312 90.5527C20.5312 91.8136 21.5517 92.834 22.8125 92.834H50.1875C51.4486 92.834 52.4688 91.8136 52.4688 90.5527C52.4688 89.2917 51.4486 88.2715 50.1875 88.2715Z" fill="white"/>
<path d="M118.026 95.815C117.984 95.6713 117.892 95.562 117.826 95.4338C122.562 90.178 125.469 83.2426 125.469 75.6113C125.469 59.2326 112.191 45.9551 95.8126 45.9551C79.4339 45.9551 66.1563 59.2326 66.1563 75.6113C66.1563 83.1586 68.9992 90.0259 73.6423 95.2606C73.5944 95.3644 73.5186 95.4479 73.4858 95.5611L63.8886 128.465C63.6367 129.33 63.9152 130.259 64.5992 130.842C65.2831 131.426 66.2455 131.549 67.0565 131.165L77.1305 126.38L83.4596 135.559C83.8896 136.182 84.5957 136.546 85.3376 136.546C85.4669 136.546 85.596 136.534 85.7254 136.512C86.603 136.361 87.3115 135.715 87.541 134.855L95.4725 105.25C95.587 105.252 95.6978 105.268 95.8126 105.268C95.8669 105.268 95.9194 105.26 95.9737 105.259L103.906 134.855C104.136 135.712 104.842 136.359 105.717 136.512C105.849 136.534 105.98 136.546 106.109 136.546C106.849 136.546 107.551 136.187 107.983 135.568L114.332 126.434L124.395 131.17C125.204 131.549 126.164 131.422 126.85 130.838C127.532 130.254 127.808 129.327 127.556 128.465L118.026 95.815ZM95.8126 50.5176C109.65 50.5176 120.906 61.7744 120.906 75.6113C120.906 89.448 109.65 100.705 95.8126 100.705C81.9759 100.705 70.7188 89.448 70.7188 75.6113C70.7188 61.7744 81.9759 50.5176 95.8126 50.5176ZM84.4132 128.904L79.7839 122.192C79.1488 121.272 77.9436 120.942 76.9277 121.426L69.6918 124.863L77.305 98.7619C81.1556 101.844 85.7913 103.968 90.8643 104.822L84.4132 128.904ZM114.53 121.484C113.521 121.016 112.321 121.332 111.686 122.245L107.041 128.929L100.587 104.849C105.662 104.025 110.302 101.93 114.167 98.8771L121.757 124.885L114.53 121.484Z" fill="white"/>
<path d="M52.4688 34.5488C52.4688 32.029 50.4261 29.9863 47.9062 29.9863H25.0938C22.5741 29.9863 20.5312 32.029 20.5312 34.5488V57.3613C20.5312 59.881 22.5741 61.9238 25.0938 61.9238H47.9062C50.4261 61.9238 52.4688 59.881 52.4688 57.3613V34.5488ZM47.9062 57.3613H25.0938V34.5488H47.9062V57.3613Z" fill="white"/>
<path d="M95.8125 89.2988C103.372 89.2988 109.5 83.1707 109.5 75.6113C109.5 68.0517 103.372 61.9238 95.8125 61.9238C88.2531 61.9238 82.125 68.0517 82.125 75.6113C82.125 83.1707 88.2531 89.2988 95.8125 89.2988ZM95.8125 66.4863C100.844 66.4863 104.938 70.5796 104.938 75.6113C104.938 80.6429 100.844 84.7363 95.8125 84.7363C90.781 84.7363 86.6875 80.6429 86.6875 75.6113C86.6875 70.5796 90.781 66.4863 95.8125 66.4863Z" fill="white"/>
</svg>
