<svg width="185" height="185" viewBox="0 0 185 185" fill="none" xmlns="http://www.w3.org/2000/svg">
<path d="M162.603 122.515H143.446C143.722 120.359 143.866 118.172 143.866 115.958C143.866 114.381 143.866 108.246 143.866 106.669C143.866 78.71 121.12 55.9639 93.1615 55.9639C65.2058 55.9639 42.4617 78.71 42.4617 106.669C42.4617 108.246 42.4617 114.385 42.4617 115.958C42.4617 118.172 42.6053 120.359 42.8818 122.515H22.3967C21.2634 122.515 20.3445 123.434 20.3445 124.567V144.91V162.599V182.947C20.3445 184.08 21.2634 184.999 22.3967 184.999H162.604C163.737 184.999 164.656 184.08 164.656 182.947V162.599V144.91V124.567C164.655 123.434 163.736 122.515 162.603 122.515ZM137.866 139.887H145.955V147.28H133.028C134.857 144.956 136.476 142.484 137.866 139.887ZM134.794 136.912C132.907 140.664 130.503 144.145 127.655 147.28H116.181C119.313 144.974 122.104 142.202 124.429 139.056C129.405 132.339 132.035 124.352 132.035 115.958C132.035 94.5259 114.597 77.0893 93.1615 77.0893C71.7292 77.0893 54.2926 94.5254 54.2926 115.958C54.2926 124.352 56.9226 132.339 61.8976 139.055C64.2223 142.201 67.0153 144.974 70.1485 147.281H58.6731C55.8246 144.145 53.421 140.665 51.5324 136.911C48.2371 130.38 46.5656 123.33 46.5656 115.958C46.5656 114.448 46.6364 112.953 46.7775 111.508C47.8631 100.021 53.1696 89.3867 61.7196 81.5647C70.3235 73.6929 81.4895 69.3576 93.1615 69.3576C104.835 69.3576 116.003 73.6929 124.607 81.5647C133.158 89.3861 138.465 100.021 139.551 111.514C139.691 112.952 139.762 114.447 139.762 115.958C139.762 123.331 138.091 130.38 134.794 136.912ZM78.0675 147.28C73.0006 144.837 68.557 141.159 65.1976 136.613C60.7489 130.608 58.3976 123.465 58.3976 115.958C58.3976 96.7885 73.9928 81.1932 93.162 81.1932C112.334 81.1932 127.932 96.788 127.932 115.958C127.932 123.465 125.58 130.608 121.13 136.615C117.77 141.162 113.326 144.84 108.261 147.28H78.0675ZM48.4623 139.887C49.8532 142.485 51.4724 144.956 53.3014 147.28H39.0447V139.887H48.4623ZM93.1615 60.0678C112.915 60.0678 129.835 72.4231 136.606 89.811C134.11 85.6706 131.019 81.8658 127.378 78.5356C118.015 69.9702 105.864 65.2527 93.162 65.2527C80.4624 65.2527 68.3118 69.9697 58.9496 78.5361C55.309 81.8669 52.2184 85.6711 49.7224 89.8115C56.4916 72.4236 73.41 60.0678 93.1615 60.0678ZM24.4489 164.652H56.6983L40.5187 180.832L40.5823 180.895H24.4489V164.652ZM142.723 164.652L126.544 180.832L126.607 180.895H121.448L137.691 164.652H142.723ZM115.771 180.895H83.1898L99.4335 164.652H131.887L115.707 180.832L115.771 180.895ZM77.5129 180.895H56.4321L72.6758 164.652H93.6294L77.4493 180.832L77.5129 180.895ZM50.7546 180.895H46.2588L62.502 164.652H66.8706L50.6905 180.832L50.7546 180.895ZM132.284 180.895L148.528 164.652H160.551V180.895H132.284ZM160.551 160.548H24.4489V144.91V126.62H43.5806C44.2507 129.754 45.2203 132.813 46.4881 135.783H36.9925C35.8592 135.783 34.9403 136.702 34.9403 137.835V149.333C34.9403 150.466 35.8592 151.385 36.9925 151.385H148.007C149.14 151.385 150.059 150.466 150.059 149.333V137.835C150.059 136.702 149.14 135.783 148.007 135.783H139.841C141.108 132.813 142.078 129.754 142.748 126.62H160.551V144.91V160.548Z" fill="white"/>
<path d="M102.041 86.7835C99.1755 85.9 96.1885 85.4521 93.1626 85.4521C92.0292 85.4521 91.1104 86.371 91.1104 87.5044C91.1104 88.6377 92.0292 89.5566 93.1626 89.5566C95.7781 89.5566 98.3582 89.9434 100.832 90.7053C101.034 90.7674 101.237 90.7971 101.438 90.7971C102.314 90.7971 103.127 90.2307 103.398 89.3493C103.731 88.2662 103.124 87.1175 102.041 86.7835Z" fill="white"/>
<path d="M119.158 115.548C119.158 116.682 120.077 117.6 121.21 117.6C122.343 117.6 123.262 116.682 123.262 115.548C123.262 106.493 119.241 98.0049 112.23 92.2592C111.353 91.5415 110.06 91.6703 109.342 92.546C108.623 93.4228 108.752 94.7157 109.628 95.434C115.684 100.397 119.158 107.728 119.158 115.548Z" fill="white"/>
<path d="M62.4255 56.2943C63.5588 56.2943 64.4777 55.3754 64.4777 54.2421V15.7631C64.4777 14.6298 63.5588 13.7109 62.4255 13.7109C61.2922 13.7109 60.3733 14.6298 60.3733 15.7631V54.2421C60.3733 55.3754 61.2922 56.2943 62.4255 56.2943Z" fill="white"/>
<path d="M123.903 56.2943C125.036 56.2943 125.955 55.3754 125.955 54.2421V15.7631C125.955 14.6298 125.036 13.7109 123.903 13.7109C122.77 13.7109 121.851 14.6298 121.851 15.7631V54.2421C121.851 55.3754 122.77 56.2943 123.903 56.2943Z" fill="white"/>
<path d="M93.1645 42.5834C94.2978 42.5834 95.2167 41.6645 95.2167 40.5311V2.05221C95.2167 0.918877 94.2978 0 93.1645 0C92.0312 0 91.1123 0.918877 91.1123 2.05221V40.5311C91.1123 41.6645 92.0312 42.5834 93.1645 42.5834Z" fill="white"/>
</svg>
