<svg width="149" height="149" viewBox="0 0 149 149" fill="none" xmlns="http://www.w3.org/2000/svg">
<path d="M147.658 91.293C143.332 85.2691 138.93 85.1052 127.981 90.8629L106.301 104.109C103.839 105.413 98.6609 106.145 91.4339 106.32C91.0948 106.328 90.759 106.336 90.4231 106.342C91.5471 104.013 91.0052 101.16 88.9179 98.0439C85.0165 92.2182 78.2679 88.7745 71.0726 88.7745H61.3847C56.125 88.7745 51.1214 87.1866 47.1547 84.1964C43.34 81.3207 38.4298 80.8106 32.811 82.1257C29.1636 82.9796 25.3363 84.5724 21.4558 86.6884C20.0368 87.4622 18.6768 88.2739 17.3841 89.0966V86.3604C17.3841 84.9888 16.2724 83.8771 14.9008 83.8771H2.48331C1.11171 83.8771 0 84.9888 0 86.3604V145.962C0 147.334 1.11201 148.446 2.48331 148.446H14.9005C16.2721 148.446 17.3838 147.334 17.3838 145.962V140.996H49.6677C54.7499 140.996 59.8289 140.612 64.8569 139.848L97.0477 134.953C98.2109 134.939 99.3669 134.804 100.515 134.555C103.508 134.124 106.332 132.664 108.666 130.463L146.308 101.15C149.295 98.6737 149.872 94.3805 147.658 91.293ZM4.96692 143.479V88.844H12.4172V93.8066C12.4172 93.808 12.4169 93.8095 12.4169 93.8109V138.512C12.4169 138.514 12.4172 138.516 12.4172 138.517V143.479H4.96692V143.479ZM143.221 97.2581L105.519 126.619L105.328 126.784C103.684 128.358 101.746 129.366 99.7738 129.643C98.6344 129.885 97.7436 129.986 96.853 129.986L96.4796 130.015L64.1107 134.937C59.3298 135.664 54.5002 136.029 49.668 136.029H17.3838V95.0702C17.6926 94.8519 18.0543 94.6011 18.4646 94.3231C20.1148 93.2068 21.9252 92.0895 23.8335 91.0488C27.3534 89.1292 30.7875 87.7 33.9428 86.9617C38.2584 85.9515 41.707 86.3098 44.1647 88.1624C49.0158 91.8195 55.0721 93.7414 61.3847 93.7414H71.0726C76.6443 93.7414 81.8315 96.3883 84.7912 100.808C86.1488 102.834 86.2501 103.84 85.811 104.399C85.3066 105.041 83.94 105.621 81.9825 105.952C80.2643 106.243 78.4044 106.311 76.7997 106.25C76.7924 106.25 76.7848 106.261 76.777 106.277C76.6181 106.245 76.4537 106.228 76.2854 106.228H52.1516C44.7305 106.228 39.7345 109.498 39.7345 116.161C39.7345 117.533 40.8462 118.645 42.2178 118.645C43.5894 118.645 44.7011 117.533 44.7011 116.161C44.7011 112.792 47.1416 111.194 52.1513 111.194H76.2851C77.3692 111.194 77.7723 111.201 81.2134 111.263C85.7161 111.343 88.5035 111.359 91.5543 111.285C99.5465 111.091 105.255 110.284 108.761 108.421L130.432 95.1796C139.305 90.52 141.034 90.5844 143.622 94.1887C144.303 95.1383 144.129 96.4843 143.221 97.2581Z" fill="white"/>
<path d="M47.1844 31.3004V66.4932C47.1844 70.6071 50.5195 73.9434 54.6346 73.9434H67.0468C67.0486 73.9434 67.05 73.9437 67.0518 73.9437H81.9523C81.954 73.9437 81.9555 73.9434 81.9572 73.9434H94.3694C98.4845 73.9434 101.82 70.6071 101.82 66.4932V31.3002C104.713 30.2775 106.787 27.5197 106.787 24.2754V16.8252C106.787 12.7095 103.452 9.37493 99.3363 9.37493H96.853V6.01011C96.853 2.28877 93.2082 -0.33889 89.6778 0.838014L80.4904 3.90105C78.8255 2.64091 76.7513 1.89269 74.502 1.89269C72.2527 1.89269 70.1788 2.6412 68.5136 3.90105L59.3265 0.837723C55.7961 -0.339181 52.1513 2.28848 52.1513 6.00981V9.37522H49.668C45.5523 9.37522 42.2178 12.7098 42.2178 16.8255V24.2757C42.2178 27.5192 44.291 30.2775 47.1844 31.3004ZM52.1513 66.4932V31.7262H64.5685V68.9765H54.6349C53.2633 68.9765 52.1513 67.8645 52.1513 66.4932ZM69.5351 29.2429V29.242V20.4301C69.5563 20.4423 69.5785 20.4528 69.5997 20.4647C69.7394 20.5442 69.8811 20.6204 70.0252 20.6932C70.0584 20.7101 70.0912 20.7275 70.1244 20.7441C70.302 20.8314 70.4818 20.9144 70.6652 20.9912C70.6797 20.9973 70.6948 21.0025 70.7094 21.0086C70.8732 21.0765 71.0397 21.1393 71.2079 21.1984C71.2583 21.2161 71.3092 21.2327 71.3598 21.2499C71.5021 21.2973 71.6459 21.3416 71.7911 21.3826C71.8397 21.3963 71.888 21.4108 71.9369 21.4239C72.1273 21.4746 72.3193 21.5211 72.514 21.5607C72.5283 21.5636 72.5428 21.5657 72.5571 21.5683C72.7358 21.6038 72.9162 21.6335 73.0981 21.6594C73.1572 21.6678 73.2163 21.6745 73.2756 21.6818C73.4212 21.6998 73.5678 21.7144 73.7154 21.726C73.7747 21.7307 73.8341 21.7359 73.8941 21.7397C74.0955 21.7519 74.2977 21.7601 74.502 21.7601C74.7063 21.7601 74.9086 21.7519 75.11 21.7397C75.1696 21.7362 75.229 21.7307 75.2884 21.726C75.4359 21.7144 75.5823 21.6998 75.7281 21.6818C75.7875 21.6745 75.8465 21.6675 75.9056 21.6594C76.0875 21.6338 76.2682 21.6038 76.4466 21.5683C76.4609 21.5654 76.4755 21.5636 76.4897 21.5607C76.6844 21.5211 76.8765 21.4746 77.0671 21.4239C77.116 21.4108 77.164 21.3963 77.2126 21.3826C77.3578 21.3416 77.5016 21.2973 77.6442 21.2499C77.6949 21.233 77.7458 21.2161 77.7958 21.1987C77.964 21.1396 78.1305 21.0767 78.2944 21.0089C78.3089 21.0028 78.3241 20.9976 78.3386 20.9915C78.5219 20.9146 78.7021 20.8317 78.8796 20.7444C78.9131 20.7281 78.9457 20.7103 78.9786 20.6938C79.1226 20.621 79.2643 20.5448 79.404 20.4653C79.4253 20.4531 79.4474 20.4429 79.4686 20.4307V29.2426V68.9774H69.5351V29.2429ZM96.8527 66.4932C96.8527 67.8645 95.741 68.9765 94.3694 68.9765H84.4359V31.7253H96.853V66.4932H96.8527ZM99.336 14.3416C100.709 14.3416 101.819 15.4524 101.819 16.8249V24.2751C101.819 25.6479 100.709 26.7584 99.336 26.7584H84.4356V21.0669L89.6772 22.8145C93.2076 23.9914 96.8524 21.3637 96.8524 17.6424V17.6421V14.3416H99.336ZM91.2485 5.5497C91.5622 5.44523 91.8861 5.67834 91.8861 6.01011V11.8582V17.6421C91.8861 17.9735 91.5625 18.207 91.2485 18.1022L84.4359 15.8299V11.8585C84.4359 11.855 84.4353 11.8516 84.4353 11.8481C84.4353 11.8408 84.4359 11.8335 84.4359 11.8262C84.4359 11.6601 84.4315 11.4945 84.4233 11.3297C84.4169 11.2011 84.4062 11.0736 84.3948 10.9462C84.3919 10.9133 84.3905 10.8801 84.3873 10.8472C84.2918 9.872 84.0543 8.93898 83.6978 8.06736L91.2485 5.5497ZM77.9856 8.28796C78.0225 8.33277 78.0563 8.37905 78.097 8.42212C78.7542 9.11679 79.1951 9.96106 79.3758 10.8766C79.3848 10.9229 79.3895 10.9706 79.3974 11.0175C79.4154 11.1246 79.4337 11.2314 79.4445 11.3402C79.4596 11.4962 79.4681 11.6542 79.4684 11.8143C79.4681 11.8257 79.4666 11.8367 79.4666 11.8484C79.466 12.0174 79.4564 12.1842 79.4393 12.3489C79.4372 12.367 79.4334 12.3844 79.4314 12.4025C79.4154 12.5401 79.3944 12.6763 79.3677 12.8105C79.3502 12.8949 79.3278 12.9781 79.306 13.0613C79.2903 13.123 79.2757 13.1856 79.2577 13.2464C79.0344 13.9804 78.6401 14.657 78.097 15.2312C78.0578 15.2728 78.0252 15.3177 77.9894 15.361C77.3183 16.024 76.4597 16.4978 75.5002 16.6936C75.4673 16.7003 75.433 16.7029 75.3998 16.709C75.2706 16.7326 75.1411 16.7553 75.0087 16.7687C74.8422 16.7856 74.6731 16.7943 74.502 16.7943C74.3309 16.7943 74.1621 16.7856 73.9953 16.7687C73.8629 16.7553 73.7334 16.7329 73.6042 16.709C73.571 16.7029 73.5367 16.7003 73.5038 16.6936C72.5443 16.4978 71.6858 16.024 71.0147 15.361C70.9789 15.3177 70.9463 15.2731 70.907 15.2312C70.3639 14.6573 69.9696 13.9807 69.7464 13.2464C69.7283 13.1856 69.7141 13.1236 69.6984 13.0619C69.6765 12.9784 69.6538 12.8955 69.6367 12.8105C69.6099 12.6766 69.5886 12.5407 69.5729 12.403C69.5709 12.385 69.5671 12.3672 69.5651 12.3492C69.5479 12.1848 69.5386 12.0177 69.5377 11.8486C69.5377 11.8373 69.536 11.8262 69.536 11.8146C69.5363 11.6545 69.5447 11.4965 69.5598 11.3405C69.5706 11.2311 69.5889 11.1237 69.6073 11.016C69.6148 10.97 69.6195 10.9229 69.6285 10.8772C69.8095 9.96164 70.2501 9.11738 70.9073 8.42241C70.948 8.37934 70.9818 8.33306 71.0185 8.28825C71.9151 7.40557 73.1444 6.85961 74.502 6.85961C75.8599 6.85932 77.0892 7.40528 77.9856 8.28796ZM57.1182 6.01011C57.1182 5.67863 57.4419 5.44523 57.7559 5.55L65.3065 8.06736C64.9497 8.93898 64.7122 9.872 64.6171 10.8472C64.6139 10.8801 64.6124 10.9133 64.6095 10.9462C64.5984 11.0736 64.5874 11.2008 64.581 11.3297C64.5728 11.4945 64.5685 11.6601 64.5685 11.8262C64.5685 11.8335 64.5691 11.8408 64.5691 11.8481C64.5691 11.8516 64.5685 11.855 64.5685 11.8585V15.8304L57.7562 18.1004C57.4657 18.1973 57.1703 18.0038 57.127 17.714C57.1235 17.6904 57.1182 17.6674 57.1182 17.6424V11.8588V6.01011ZM47.1844 16.8257C47.1844 15.4533 48.2952 14.3424 49.6677 14.3424H52.151V17.6424V17.6429C52.151 17.9506 52.1781 18.2497 52.2258 18.541C52.7552 21.7717 56.0877 23.8942 59.326 22.8147L64.5679 21.0671V26.759H49.6674C49.6648 26.759 49.6625 26.7593 49.6602 26.7593C48.292 26.7552 47.1841 25.645 47.1841 24.2763V16.8257H47.1844Z" fill="white"/>
</svg>
