<svg width="146" height="146" viewBox="0 0 146 146" fill="none" xmlns="http://www.w3.org/2000/svg">
<path d="M95.9269 0L95.7415 2.05284C95.2311 7.70777 92.6396 12.9458 88.4444 16.8028C84.2238 20.6835 78.7388 22.8205 73.0003 22.8205C67.2615 22.8205 61.7768 20.6835 57.5563 16.8028C53.361 12.9455 50.7695 7.7072 50.2591 2.05284L50.0735 0H31.9492V146H114.051V0H95.9269ZM109.54 43.3594H107.231V47.8706H109.54V141.489H36.4604V47.8703H38.769V43.3591H36.4604V4.51117H46.0297C47.0291 10.4929 49.9916 15.9764 54.5028 20.1238C59.5586 24.7721 66.1275 27.3319 73.0003 27.3319C79.8731 27.3319 86.442 24.7721 91.4978 20.1238C96.0087 15.9764 98.9712 10.4929 99.971 4.51117H109.54V43.3594H109.54Z" fill="white"/>
<path d="M47.8977 43.3604H43.3335V47.8715H47.8977V43.3604Z" fill="white"/>
<path d="M57.0249 43.3604H52.4609V47.8715H57.0249V43.3604Z" fill="white"/>
<path d="M66.1526 43.3604H61.5884V47.8715H66.1526V43.3604Z" fill="white"/>
<path d="M75.2829 43.3604H70.719V47.8715H75.2829V43.3604Z" fill="white"/>
<path d="M84.4104 43.3604H79.8462V47.8715H84.4104V43.3604Z" fill="white"/>
<path d="M93.5378 43.3604H88.9736V47.8715H93.5378V43.3604Z" fill="white"/>
<path d="M102.668 43.3604H98.1042V47.8715H102.668V43.3604Z" fill="white"/>
<path d="M43.3596 54.7695V98.0759H102.64V54.7695H43.3596ZM98.1293 93.5647H47.8708V59.2807H98.1293V93.5647Z" fill="white"/>
<path d="M93.5388 102.693H52.4609V107.205H93.5388V102.693Z" fill="white"/>
<path d="M93.5388 111.82H52.4609V116.331H93.5388V111.82Z" fill="white"/>
<path d="M68.4362 120.951H52.4609V125.462H68.4362V120.951Z" fill="white"/>
<path d="M59.3073 130.078H52.4609V134.589H59.3073V130.078Z" fill="white"/>
<path d="M70.7174 130.078H63.8711V134.589H70.7174V130.078Z" fill="white"/>
<path d="M82.1273 130.078H75.281V134.589H82.1273V130.078Z" fill="white"/>
<path d="M93.5375 130.078H86.6912V134.589H93.5375V130.078Z" fill="white"/>
</svg>
