<svg width="95" height="95" viewBox="0 0 95 95" fill="none" xmlns="http://www.w3.org/2000/svg">
<path d="M79.166 79.1667H15.8327C13.7331 79.1667 11.7194 78.3326 10.2348 76.8479C8.75009 75.3633 7.91602 73.3496 7.91602 71.25V23.4056C8.00481 21.3663 8.87793 19.44 10.3531 18.029C11.8282 16.618 13.7914 15.8314 15.8327 15.8333H79.166C81.2656 15.8333 83.2793 16.6674 84.7639 18.1521C86.2486 19.6367 87.0827 21.6504 87.0827 23.75V71.25C87.0827 73.3496 86.2486 75.3633 84.7639 76.8479C83.2793 78.3326 81.2656 79.1667 79.166 79.1667ZM15.8327 31.1442V71.25H79.166V31.1442L47.4993 52.25L15.8327 31.1442ZM18.9993 23.75L47.4993 42.75L75.9994 23.75H18.9993Z" fill="#F8F8F8"/>
</svg>
