<svg width="32" height="32" viewBox="0 0 32 32" fill="none" xmlns="http://www.w3.org/2000/svg">
<path d="M20.3296 21.48L22.5696 19.24C22.8713 18.942 23.2531 18.7381 23.6684 18.6529C24.0838 18.5677 24.515 18.6049 24.9096 18.76L27.6396 19.85C28.0385 20.0119 28.3804 20.2882 28.6224 20.6441C28.8645 21 28.9957 21.4196 28.9996 21.85V26.85C28.9973 27.1428 28.9358 27.4321 28.8187 27.7004C28.7016 27.9688 28.5315 28.2107 28.3185 28.4116C28.1055 28.6124 27.854 28.7681 27.5792 28.8692C27.3044 28.9704 27.0121 29.0149 26.7196 29C7.58965 27.81 3.72965 11.61 2.99965 5.41C2.96576 5.10554 2.99672 4.79735 3.09049 4.50571C3.18427 4.21407 3.33873 3.9456 3.54371 3.71794C3.7487 3.49028 3.99956 3.30861 4.2798 3.18487C4.56004 3.06113 4.86331 2.99812 5.16965 3H9.99965C10.4307 3.00128 10.8514 3.13147 11.2078 3.37383C11.5643 3.61619 11.84 3.95964 11.9996 4.36L13.0896 7.09C13.2499 7.48307 13.2908 7.91465 13.2072 8.33081C13.1236 8.74698 12.9192 9.1293 12.6196 9.43L10.3796 11.67C10.3796 11.67 11.6696 20.4 20.3296 21.48Z" fill="#F8F8F8"/>
</svg>
