<svg width="500" height="500" viewBox="0 0 500 500" fill="none" xmlns="http://www.w3.org/2000/svg">
<path d="M327.683 269.474C325.511 269.474 323.344 269.422 321.177 269.313C319.016 269.208 316.849 269.047 314.693 268.833C312.537 268.62 310.386 268.359 308.24 268.036C306.094 267.719 303.959 267.349 301.834 266.927C299.703 266.505 297.589 266.031 295.485 265.5C293.381 264.974 291.292 264.396 289.219 263.766C287.141 263.135 285.084 262.458 283.042 261.729C281 260.995 278.979 260.219 276.974 259.385C274.974 258.557 272.99 257.677 271.032 256.75C269.068 255.823 267.136 254.849 265.219 253.828C263.308 252.807 261.422 251.734 259.563 250.62C257.703 249.505 255.87 248.349 254.068 247.141C252.266 245.938 250.495 244.688 248.75 243.396C247.011 242.104 245.302 240.771 243.625 239.396C241.948 238.021 240.308 236.604 238.698 235.151C237.094 233.693 235.521 232.198 233.99 230.667C232.453 229.13 230.959 227.562 229.506 225.953C228.047 224.349 226.631 222.708 225.256 221.031C223.881 219.354 222.547 217.646 221.256 215.901C219.964 214.161 218.714 212.391 217.511 210.583C216.308 208.781 215.146 206.953 214.032 205.094C212.917 203.229 211.849 201.344 210.828 199.432C209.802 197.521 208.828 195.583 207.901 193.625C206.974 191.661 206.099 189.682 205.266 187.677C204.438 185.677 203.657 183.651 202.927 181.609C202.198 179.568 201.516 177.51 200.886 175.438C200.256 173.359 199.677 171.271 199.151 169.167C198.625 167.062 198.151 164.948 197.729 162.823C197.302 160.698 196.933 158.557 196.615 156.417C196.297 154.271 196.032 152.12 195.818 149.958C195.604 147.802 195.448 145.641 195.339 143.474C195.235 141.307 195.183 139.141 195.183 136.974C195.183 134.802 195.235 132.635 195.339 130.474C195.448 128.307 195.604 126.146 195.818 123.984C196.032 121.828 196.297 119.677 196.615 117.531C196.933 115.385 197.302 113.25 197.729 111.125C198.151 108.995 198.625 106.88 199.151 104.776C199.677 102.672 200.256 100.583 200.886 98.5104C201.516 96.4375 202.198 94.375 202.927 92.3333C203.657 90.2917 204.438 88.2708 205.266 86.2656C206.099 84.2656 206.974 82.2812 207.901 80.3229C208.828 78.3594 209.802 76.4271 210.828 74.5104C211.849 72.599 212.917 70.7135 214.032 68.8542C215.146 66.9948 216.308 65.1615 217.511 63.3594C218.714 61.5573 219.964 59.7865 221.256 58.0417C222.547 56.3021 223.881 54.5937 225.256 52.9167C226.631 51.2396 228.047 49.599 229.506 47.9896C230.959 46.3854 232.453 44.8125 233.99 43.2812C235.521 41.75 237.094 40.2552 238.698 38.7969C240.308 37.3385 241.948 35.9271 243.625 34.5469C245.302 33.1719 247.011 31.8385 248.75 30.5469C250.495 29.2552 252.266 28.0104 254.068 26.8021C255.87 25.599 257.703 24.4375 259.563 23.3229C261.422 22.2083 263.308 21.1406 265.219 20.1198C267.136 19.0937 269.068 18.1198 271.032 17.1927C272.99 16.2656 274.974 15.3906 276.974 14.5573C278.979 13.7292 281 12.9479 283.042 12.2187C285.084 11.4896 287.141 10.8073 289.219 10.1771C291.292 9.54687 293.381 8.96874 295.485 8.4427C297.589 7.91666 299.703 7.4427 301.834 7.02083C303.959 6.59374 306.094 6.22395 308.24 5.90625C310.386 5.58854 312.537 5.32291 314.693 5.10937C316.849 4.89583 319.016 4.73958 321.177 4.6302C323.344 4.52604 325.511 4.47395 327.683 4.47395C329.849 4.47395 332.016 4.52604 334.183 4.6302C336.349 4.73958 338.511 4.89583 340.667 5.10937C342.828 5.32291 344.979 5.58854 347.125 5.90625C349.266 6.22395 351.401 6.59374 353.532 7.02083C355.657 7.4427 357.771 7.91666 359.875 8.4427C361.979 8.96874 364.068 9.54687 366.146 10.1771C368.219 10.8073 370.276 11.4896 372.318 12.2187C374.36 12.9479 376.381 13.7292 378.386 14.5573C380.391 15.3906 382.37 16.2656 384.334 17.1927C386.292 18.1198 388.229 19.0937 390.141 20.1198C392.052 21.1406 393.938 22.2083 395.797 23.3229C397.662 24.4375 399.49 25.599 401.292 26.8021C403.099 28.0104 404.87 29.2552 406.61 30.5469C408.354 31.8385 410.063 33.1719 411.74 34.5469C413.412 35.9271 415.058 37.3385 416.662 38.7969C418.271 40.2552 419.839 41.75 421.37 43.2812C422.907 44.8125 424.401 46.3854 425.854 47.9896C427.313 49.599 428.729 51.2396 430.104 52.9167C431.479 54.5937 432.813 56.3021 434.104 58.0417C435.396 59.7865 436.646 61.5573 437.849 63.3594C439.058 65.1615 440.214 66.9948 441.328 68.8542C442.443 70.7135 443.511 72.599 444.537 74.5104C445.558 76.4271 446.532 78.3594 447.459 80.3229C448.386 82.2812 449.266 84.2656 450.094 86.2656C450.927 88.2708 451.703 90.2917 452.438 92.3333C453.167 94.375 453.844 96.4375 454.474 98.5104C455.104 100.583 455.683 102.672 456.209 104.776C456.735 106.88 457.214 108.995 457.636 111.125C458.058 113.25 458.427 115.385 458.745 117.531C459.063 119.677 459.328 121.828 459.542 123.984C459.756 126.146 459.917 128.307 460.021 130.474C460.125 132.635 460.183 134.802 460.183 136.974C460.183 139.141 460.125 141.307 460.021 143.474C459.917 145.641 459.756 147.802 459.542 149.958C459.328 152.12 459.063 154.271 458.745 156.417C458.427 158.557 458.058 160.698 457.636 162.823C457.214 164.948 456.735 167.062 456.209 169.167C455.683 171.271 455.104 173.359 454.474 175.438C453.844 177.51 453.167 179.568 452.438 181.609C451.703 183.651 450.927 185.677 450.094 187.677C449.266 189.682 448.386 191.661 447.459 193.625C446.532 195.583 445.558 197.521 444.537 199.432C443.511 201.344 442.443 203.229 441.328 205.094C440.214 206.953 439.058 208.781 437.849 210.583C436.646 212.391 435.396 214.161 434.104 215.901C432.813 217.646 431.479 219.354 430.104 221.031C428.729 222.708 427.313 224.349 425.854 225.953C424.401 227.562 422.907 229.13 421.37 230.667C419.839 232.198 418.271 233.693 416.662 235.151C415.058 236.604 413.412 238.021 411.74 239.396C410.063 240.771 408.354 242.104 406.61 243.396C404.87 244.688 403.099 245.938 401.292 247.141C399.49 248.349 397.662 249.505 395.797 250.62C393.938 251.734 392.052 252.807 390.141 253.828C388.229 254.849 386.292 255.823 384.334 256.75C382.37 257.677 380.391 258.557 378.386 259.385C376.386 260.219 374.36 260.995 372.318 261.729C370.276 262.458 368.219 263.135 366.146 263.766C364.068 264.396 361.979 264.974 359.875 265.5C357.771 266.031 355.657 266.505 353.532 266.927C351.401 267.349 349.266 267.719 347.125 268.036C344.979 268.359 342.828 268.62 340.667 268.833C338.511 269.047 336.349 269.208 334.183 269.313C332.016 269.422 329.849 269.474 327.683 269.474Z" fill="#74E0EF"/>
<path d="M152.693 4.48438V495.464H39.7031V4.48438H152.693Z" fill="#7A63FF"/>
<path d="M459.756 495.906H201.761V269.906L459.756 495.906Z" fill="#E7E7E7"/>
</svg>
