<svg width="27" height="21" viewBox="0 0 27 21" fill="none" xmlns="http://www.w3.org/2000/svg">
<path d="M16.1908 21H15.915C15.3593 20.9449 14.8355 20.714 14.4199 20.3409C14.0043 19.9678 13.7185 19.4719 13.6039 18.9253L10.0848 2.61628L6.46056 11.0203C6.35805 11.2552 6.18905 11.4549 5.97438 11.5949C5.75971 11.7349 5.50877 11.809 5.25249 11.8081H1.31312C0.964861 11.8081 0.630863 11.6698 0.384605 11.4235C0.138346 11.1773 0 10.8433 0 10.495C0 10.1468 0.138346 9.81276 0.384605 9.5665C0.630863 9.32024 0.964861 9.1819 1.31312 9.1819H4.38583L7.68177 1.57892C7.90364 1.06872 8.2818 0.642161 8.76173 0.360746C9.24166 0.0793318 9.79857 -0.0423992 10.3521 0.0131046C10.9057 0.0686084 11.4274 0.298479 11.8419 0.669574C12.2564 1.04067 12.5423 1.53381 12.6585 2.0779L16.1777 18.3738L19.8019 9.99603C19.9004 9.75623 20.0677 9.55096 20.2827 9.40607C20.4977 9.26119 20.7507 9.18319 21.01 9.1819H24.9493C25.2976 9.1819 25.6316 9.32024 25.8778 9.5665C26.1241 9.81276 26.2625 10.1468 26.2625 10.495C26.2625 10.8433 26.1241 11.1773 25.8778 11.4235C25.6316 11.6698 25.2976 11.8081 24.9493 11.8081H21.8766L18.5807 19.4111C18.3794 19.8793 18.0463 20.2787 17.622 20.5609C17.1976 20.843 16.7004 20.9956 16.1908 21Z" fill="white"/>
</svg>
