<svg width="21" height="21" viewBox="0 0 21 21" fill="none" xmlns="http://www.w3.org/2000/svg">
<path d="M3 14.25V13.5H1.5V14.25C1.5 15.6424 2.05312 16.9777 3.03769 17.9623C4.02225 18.9469 5.35761 19.5 6.75 19.5H9V18H6.75C5.75544 18 4.80161 17.6049 4.09835 16.9017C3.39509 16.1984 3 15.2446 3 14.25ZM16.5 6.75V7.5H18V6.75C18 5.35761 17.4469 4.02226 16.4623 3.03769C15.4777 2.05312 14.1424 1.5 12.75 1.5H10.5V3H12.75C13.2425 3 13.7301 3.097 14.1851 3.28545C14.64 3.47391 15.0534 3.75013 15.4016 4.09835C15.7499 4.44657 16.0261 4.85997 16.2145 5.31494C16.403 5.76991 16.5 6.25754 16.5 6.75V6.75ZM6.75 6.75H2.25C1.65326 6.75 1.08097 6.98705 0.65901 7.40901C0.237053 7.83097 0 8.40326 0 9V10.5H1.5V9C1.5 8.80109 1.57902 8.61032 1.71967 8.46967C1.86032 8.32902 2.05109 8.25 2.25 8.25H6.75C6.94891 8.25 7.13968 8.32902 7.28033 8.46967C7.42098 8.61032 7.5 8.80109 7.5 9V10.5H9V9C9 8.40326 8.76295 7.83097 8.34099 7.40901C7.91903 6.98705 7.34674 6.75 6.75 6.75V6.75ZM4.5 6C5.09334 6 5.67336 5.82405 6.16671 5.49441C6.66006 5.16477 7.04458 4.69623 7.27164 4.14805C7.4987 3.59987 7.55811 2.99667 7.44236 2.41473C7.3266 1.83279 7.04088 1.29824 6.62132 0.878681C6.20176 0.459123 5.66721 0.173401 5.08527 0.0576455C4.50333 -0.0581101 3.90013 0.00129984 3.35195 0.228363C2.80377 0.455426 2.33524 0.839943 2.00559 1.33329C1.67595 1.82664 1.5 2.40666 1.5 3C1.5 3.79565 1.81607 4.55871 2.37868 5.12132C2.94129 5.68393 3.70435 6 4.5 6ZM4.5 1.5C4.79667 1.5 5.08668 1.58797 5.33335 1.7528C5.58003 1.91762 5.77229 2.15189 5.88582 2.42598C5.99935 2.70006 6.02906 3.00167 5.97118 3.29264C5.9133 3.58361 5.77044 3.85088 5.56066 4.06066C5.35088 4.27044 5.08361 4.4133 4.79264 4.47118C4.50166 4.52906 4.20006 4.49935 3.92597 4.38582C3.65189 4.27229 3.41762 4.08003 3.2528 3.83336C3.08797 3.58668 3 3.29667 3 3C3 2.60218 3.15803 2.22065 3.43934 1.93934C3.72064 1.65804 4.10217 1.5 4.5 1.5V1.5ZM18.75 17.25H14.25C13.6533 17.25 13.081 17.4871 12.659 17.909C12.2371 18.331 12 18.9033 12 19.5V21H13.5V19.5C13.5 19.3011 13.579 19.1103 13.7197 18.9697C13.8603 18.829 14.0511 18.75 14.25 18.75H18.75C18.9489 18.75 19.1397 18.829 19.2803 18.9697C19.421 19.1103 19.5 19.3011 19.5 19.5V21H21V19.5C21 18.9033 20.7629 18.331 20.341 17.909C19.919 17.4871 19.3467 17.25 18.75 17.25ZM13.5 13.5C13.5 14.0933 13.6759 14.6734 14.0056 15.1667C14.3352 15.6601 14.8038 16.0446 15.3519 16.2716C15.9001 16.4987 16.5033 16.5581 17.0853 16.4424C17.6672 16.3266 18.2018 16.0409 18.6213 15.6213C19.0409 15.2018 19.3266 14.6672 19.4424 14.0853C19.5581 13.5033 19.4987 12.9001 19.2716 12.352C19.0446 11.8038 18.6601 11.3352 18.1667 11.0056C17.6734 10.6759 17.0933 10.5 16.5 10.5C15.7043 10.5 14.9413 10.8161 14.3787 11.3787C13.8161 11.9413 13.5 12.7044 13.5 13.5ZM18 13.5C18 13.7967 17.912 14.0867 17.7472 14.3334C17.5824 14.58 17.3481 14.7723 17.074 14.8858C16.7999 14.9994 16.4983 15.0291 16.2074 14.9712C15.9164 14.9133 15.6491 14.7704 15.4393 14.5607C15.2296 14.3509 15.0867 14.0836 15.0288 13.7926C14.9709 13.5017 15.0006 13.2001 15.1142 12.926C15.2277 12.6519 15.42 12.4176 15.6666 12.2528C15.9133 12.088 16.2033 12 16.5 12C16.8978 12 17.2794 12.158 17.5607 12.4393C17.842 12.7206 18 13.1022 18 13.5Z" fill="white"/>
</svg>
