<svg width="15" height="21" viewBox="0 0 15 21" fill="none" xmlns="http://www.w3.org/2000/svg">
<path d="M11.4853 0.0898247C11.6137 0.16429 11.7131 0.280113 11.7673 0.418374C11.8214 0.556635 11.827 0.70916 11.7832 0.851031L9.41954 8.53134H13.7807C13.9089 8.53129 14.0343 8.56877 14.1414 8.63916C14.2485 8.70955 14.3326 8.80976 14.3834 8.92742C14.4342 9.04509 14.4495 9.17506 14.4273 9.30128C14.4051 9.42751 14.3464 9.54447 14.2585 9.63772L3.75905 20.7933C3.65746 20.9014 3.52227 20.9718 3.37552 20.9932C3.22877 21.0145 3.07912 20.9855 2.95095 20.911C2.82278 20.8364 2.72365 20.7206 2.66972 20.5824C2.6158 20.4443 2.61025 20.2919 2.65399 20.1502L5.01766 12.4686H0.656475C0.528309 12.4687 0.402935 12.4312 0.295828 12.3608C0.188721 12.2904 0.104569 12.1902 0.0537629 12.0725C0.00295635 11.9549 -0.0122816 11.8249 0.00993002 11.6987C0.0321416 11.5725 0.0908303 11.4555 0.178752 11.3622L10.6782 0.206631C10.7796 0.098748 10.9146 0.028362 11.0611 0.00691686C11.2077 -0.0145282 11.3572 0.0142288 11.4853 0.0885122V0.0898247Z" fill="white"/>
</svg>
