<svg width="21" height="22" viewBox="0 0 21 22" fill="none" xmlns="http://www.w3.org/2000/svg">
<path d="M20.9926 6.00154C19.23 5.90456 17.4813 6.36272 15.9926 7.31154C15.6326 6.90154 15.2626 6.49154 14.8726 6.10154L14.5826 5.83154L14.7226 5.71154C15.2117 5.29175 15.5602 4.73206 15.7211 4.10798C15.882 3.4839 15.8477 2.82548 15.6226 2.22154C15.2975 1.53972 14.7815 0.966976 14.1371 0.572881C13.4927 0.178786 12.7477 -0.0196969 11.9926 0.00154256V2.00154C12.3484 1.99659 12.6991 2.08665 13.0085 2.26244C13.3179 2.43822 13.5748 2.69336 13.7526 3.00154C13.9226 3.40154 13.7526 3.84154 13.2826 4.31154L13.0526 4.52154C12.0096 3.6524 10.8645 2.91362 9.64263 2.32154C7.11263 1.18154 5.81263 1.71154 5.17263 2.32154C4.97762 2.51703 4.82152 2.74779 4.71263 3.00154L4.53263 3.53154L3.09263 7.87154C4.23263 10.7115 6.99263 15.7615 12.9926 17.9415L17.9926 16.2815C18.1612 16.2188 18.3098 16.1117 18.4226 15.9715L18.6326 15.7915C20.0626 14.3515 19.1426 11.5815 17.2226 8.89154C18.3627 8.2262 19.6754 7.9163 20.9926 8.00154V6.00154ZM17.2026 14.3715H17.1426C16.4526 14.7415 13.5926 13.8015 10.3526 10.5615C10.0126 10.2215 9.69263 9.89154 9.40263 9.56154C9.30263 9.45154 9.21263 9.33154 9.11263 9.21154L8.58263 8.57154L8.30263 8.18154C8.16263 7.99154 8.02263 7.80154 7.90263 7.62154C7.78263 7.44154 7.74263 7.36154 7.66263 7.23154C7.58263 7.10154 7.44263 6.89154 7.35263 6.72154C7.26263 6.55154 7.22263 6.48154 7.16263 6.35154C7.10263 6.22154 6.99263 6.07154 6.93263 5.93154C6.87263 5.79154 6.84263 5.70154 6.79263 5.59154C6.74263 5.48154 6.68263 5.32154 6.64263 5.19154C6.60263 5.06154 6.59263 5.00154 6.57263 4.90154C6.55263 4.80154 6.51263 4.66154 6.49263 4.56154C6.48783 4.48161 6.48783 4.40147 6.49263 4.32154C6.4828 4.23515 6.4828 4.14793 6.49263 4.06154L6.60263 3.75154C6.77263 3.57154 7.51263 3.52154 8.83263 4.12154C9.71478 4.54533 10.5495 5.06155 11.3226 5.66154C10.9011 5.84757 10.4517 5.96246 9.99263 6.00154V8.00154C11.055 7.94127 12.0858 7.61828 12.9926 7.06154L13.4826 7.52154C13.9226 7.95154 14.3126 8.38154 14.6726 8.79154C14.0697 9.81968 13.8302 11.0208 13.9926 12.2015L15.9926 11.8115C15.925 11.4345 15.925 11.0485 15.9926 10.6715C17.2826 12.6415 17.5226 14.0615 17.2026 14.3715V14.3715ZM2.39263 10.0015L0.162632 16.7015C0.0016804 17.1934 -0.0405794 17.7165 0.0393079 18.2278C0.119195 18.7392 0.318962 19.2244 0.622277 19.6438C0.925593 20.0631 1.32385 20.4048 1.78448 20.6408C2.24512 20.8768 2.75507 21.0004 3.27263 21.0015C3.61287 20.9982 3.95042 20.9409 4.27263 20.8315L10.7926 18.6615C7.11276 16.7822 4.15897 13.737 2.39263 10.0015V10.0015Z" fill="white"/>
</svg>
