<svg width="15" height="21" viewBox="0 0 15 21" fill="none" xmlns="http://www.w3.org/2000/svg">
<path d="M9.22696 9.74988C8.96015 9.74991 8.69605 9.80341 8.45027 9.90724C8.20448 10.0111 7.98201 10.1631 7.79598 10.3544L7.50123 10.6581L7.20349 10.3544C7.01744 10.1631 6.79496 10.0111 6.54918 9.90735C6.30339 9.80356 6.0393 9.75009 5.77251 9.75009C5.50571 9.75009 5.24162 9.80356 4.99584 9.90735C4.75005 10.0111 4.52757 10.1631 4.34152 10.3544C3.96213 10.7461 3.75 11.27 3.75 11.8154C3.75 12.3607 3.96213 12.8846 4.34152 13.2763L7.50123 16.4998L10.6579 13.2763C11.0373 12.8846 11.2495 12.3607 11.2495 11.8154C11.2495 11.27 11.0373 10.7461 10.6579 10.3544C10.4719 10.1631 10.2494 10.0111 10.0037 9.90724C9.75787 9.80341 9.49377 9.74991 9.22696 9.74988V9.74988Z" fill="white"/>
<path d="M14.7748 5.4752L9.52488 0.225261C9.45888 0.151981 9.37776 0.0939092 9.28711 0.0550615C9.19647 0.0162137 9.09847 -0.00248289 8.99989 0.000264299H1.49998C1.10253 0.00145133 0.72169 0.159866 0.440646 0.44091C0.159602 0.721954 0.00118703 1.10279 0 1.50025V19.5C0.00118703 19.8975 0.159602 20.2783 0.440646 20.5594C0.72169 20.8404 1.10253 20.9988 1.49998 21H13.4998C13.8973 20.9988 14.2781 20.8404 14.5592 20.5594C14.8402 20.2783 14.9986 19.8975 14.9998 19.5V6.00019C15.0026 5.90161 14.9839 5.80361 14.945 5.71296C14.9062 5.62232 14.8481 5.54119 14.7748 5.4752V5.4752ZM8.99989 1.80024L13.1998 6.00019H8.99989V1.80024ZM13.4998 19.5H1.49998V1.50025H7.49991V6.00019C7.50109 6.39764 7.65951 6.77848 7.94055 7.05952C8.22159 7.34057 8.60243 7.49898 8.99989 7.50017H13.4998V19.5Z" fill="white"/>
</svg>
